# xmcd CD database file
#
# Track frame offsets:
#	150
#	21522
#	44228
#	64875
#	87525
#	109155
#	130470
#	152903
#	175163
#	198068
#	218353
#	240360
#
# Disc length: 3477 seconds
#
# Revision: 5
# Processed by: cddbd v1.5.2PL0 Copyright (c) Steve Scherf et al.
# Submitted via: CDex 1.70beta2
#
DISCID=a90d930c
DTITLE=Jerry Rivera - Sony Discos 20th Anniversary
DYEAR=1999
DGENRE=Salsa
TTITLE0=Me Estoy Enloqueciendo Por Ti
TTITLE1=Amores Como El Nuestro
TTITLE2=Casi Un Hechizo
TTITLE3=Esa Niña
TTITLE4=Me Estoy Enamorando
TTITLE5=Dime
TTITLE6=Que Hay De Malo
TTITLE7=Cara De Niño
TTITLE8=Cuenta Conmigo
TTITLE9=Dia Y Noche, Pienso En Ella
TTITLE10=No Hieras Mi Vida
TTITLE11=Nada Sin Ti
EXTD=YEAR: 1999
EXTT0=
EXTT1=
EXTT2=
EXTT3=
EXTT4=
EXTT5=
EXTT6=
EXTT7=
EXTT8=
EXTT9=
EXTT10=
EXTT11=
PLAYORDER=
